<svg xmlns="http://www.w3.org/2000/svg" width="480" height="480" viewBox="0 0 480 480">
  <defs>
    <pattern id="grid1" width="24" height="24" patternUnits="userSpaceOnUse">
      <path d="M24 0H0V24" fill="none" stroke="#1c1c1c" stroke-width="0.6"/>
    </pattern>
  </defs>
  <rect width="480" height="480" fill="#000000"/>
  <rect width="480" height="480" fill="url(#grid1)"/>
  <circle cx="240" cy="190" r="84" fill="none" stroke="#ffffff" stroke-width="1.5" opacity="0.5"/>
  <circle cx="240" cy="190" r="70" fill="#111111" stroke="#ffffff" stroke-width="1.2"/>
  <path d="M240 130c-30 0-50 25-50 55 0 22 12 38 28 47h44c16-9 28-25 28-47 0-30-20-55-50-55Z" fill="#0a0a0a" stroke="#ffffff" stroke-width="1"/>
  <path d="M150 430c10-60 50-95 90-95s80 35 90 95Z" fill="#111111" stroke="#ffffff" stroke-width="1.2"/>
  <g stroke="#ffffff" stroke-width="1" opacity="0.5">
    <line x1="40" y1="60" x2="90" y2="60"/>
    <line x1="90" y1="60" x2="90" y2="100"/>
    <circle cx="40" cy="60" r="4" fill="#ffffff"/>
    <circle cx="90" cy="100" r="4" fill="#ffffff"/>
    <line x1="390" y1="420" x2="440" y2="420"/>
    <line x1="390" y1="420" x2="390" y2="380"/>
    <circle cx="440" cy="420" r="4" fill="#ffffff"/>
    <circle cx="390" cy="380" r="4" fill="#ffffff"/>
  </g>
  <text x="240" y="465" text-anchor="middle" font-family="monospace" font-size="14" fill="#ffffff" opacity="0.6">CO-FOUNDER // LEAN SIX SIGMA</text>
</svg>
